<?xml version="1.0" encoding="UTF-8" standalone="no" ?>
<!DOCTYPE svg PUBLIC "-//W3C//DTD SVG 1.1//EN" "http://www.w3.org/Graphics/SVG/1.1/DTD/svg11.dtd">
<svg xmlns="http://www.w3.org/2000/svg" xmlns:xlink="http://www.w3.org/1999/xlink" version="1.1" width="1080" height="1080" viewBox="0 0 1080 1080" xml:space="preserve">
<desc>Created with Fabric.js 5.2.4</desc>
<defs>
</defs>
<g transform="matrix(1 0 0 1 540 540)" id="0a4b25bf-688a-43d5-93de-3cda4b7f56af"  >
<rect style="stroke: none; stroke-width: 1; stroke-dasharray: none; stroke-linecap: butt; stroke-dashoffset: 0; stroke-linejoin: miter; stroke-miterlimit: 4; fill: rgb(255,255,255); fill-rule: nonzero; opacity: 1; visibility: hidden;" vector-effect="non-scaling-stroke"  x="-540" y="-540" rx="0" ry="0" width="1080" height="1080" />
</g>
<g transform="matrix(1 0 0 1 540 540)" id="364660ac-fa66-42a3-8192-264ba0ad8c5b"  >
</g>
<g transform="matrix(1 0 0 1 612.04 429.03)" clip-path="url(#CLIPPATH_3)"  >
<clipPath id="CLIPPATH_3" >
	<rect transform="matrix(1 0 0 1 -25.92 26.91)" id="clip0" x="-103" y="-52" rx="0" ry="0" width="206" height="104" />
</clipPath>
<path style="stroke: none; stroke-width: 1; stroke-dasharray: none; stroke-linecap: butt; stroke-dashoffset: 0; stroke-linejoin: miter; stroke-miterlimit: 4; fill: rgb(68,68,68); fill-rule: nonzero; opacity: 1;" vector-effect="non-scaling-stroke"  transform=" translate(-128.92, -25.09)" d="M 147.75 17.1875 C 147.757 15.7371 147.361 14.3132 146.604 13.0754 C 145.848 11.8377 144.763 10.8348 143.469 10.1793 C 142.175 9.52368 140.724 9.24124 139.279 9.36356 C 137.833 9.48589 136.451 10.0081 135.285 10.8719 C 134.12 11.7356 133.218 12.9066 132.681 14.2539 C 132.144 15.6011 131.992 17.0714 132.243 18.5 C 132.494 19.9285 133.138 21.2591 134.102 22.3425 C 135.066 23.4259 136.313 24.2195 137.703 24.6344 C 137.19 25.6774 136.396 26.5566 135.411 27.1732 C 134.425 27.7899 133.287 28.1195 132.125 28.125 L 125.875 28.125 C 123.561 28.1331 121.333 29.002 119.625 30.5625 L 119.625 15.4656 C 121.522 15.0784 123.208 14.0006 124.355 12.4413 C 125.502 10.8819 126.03 8.95199 125.835 7.02574 C 125.641 5.09949 124.738 3.3141 123.302 2.01572 C 121.866 0.717341 119.999 -0.00153351 118.062 -0.00153351 C 116.126 -0.00153351 114.259 0.717341 112.823 2.01572 C 111.387 3.3141 110.484 5.09949 110.29 7.02574 C 110.095 8.95199 110.623 10.8819 111.77 12.4413 C 112.917 14.0006 114.603 15.0784 116.5 15.4656 L 116.5 34.5281 C 114.607 34.8902 112.911 35.9327 111.733 37.4588 C 110.556 38.985 109.977 40.8893 110.107 42.8126 C 110.237 44.7359 111.066 46.5453 112.438 47.8995 C 113.81 49.2536 115.63 50.0589 117.555 50.1635 C 119.48 50.268 121.376 49.6646 122.887 48.4671 C 124.397 47.2695 125.418 45.5606 125.755 43.6626 C 126.092 41.7647 125.723 39.8089 124.718 38.1642 C 123.712 36.5194 122.14 35.2995 120.297 34.7344 C 120.811 33.6925 121.605 32.8146 122.591 32.1991 C 123.576 31.5836 124.713 31.255 125.875 31.25 L 132.125 31.25 C 134.075 31.241 135.973 30.6242 137.556 29.4854 C 139.139 28.3467 140.328 26.7427 140.956 24.8969 C 142.829 24.6505 144.55 23.7337 145.799 22.3163 C 147.048 20.8988 147.741 19.0768 147.75 17.1875 Z M 113.375 7.8125 C 113.375 6.8854 113.65 5.97912 114.165 5.20826 C 114.68 4.43741 115.412 3.8366 116.269 3.48181 C 117.125 3.12703 118.068 3.0342 118.977 3.21507 C 119.886 3.39593 120.721 3.84238 121.377 4.49793 C 122.033 5.15349 122.479 5.98872 122.66 6.89801 C 122.841 7.8073 122.748 8.7498 122.393 9.60633 C 122.038 10.4629 121.438 11.1949 120.667 11.71 C 119.896 12.2251 118.99 12.5 118.062 12.5 C 116.819 12.5 115.627 12.0061 114.748 11.1271 C 113.869 10.248 113.375 9.0557 113.375 7.8125 Z M 122.75 42.1875 C 122.75 43.1146 122.475 44.0209 121.96 44.7917 C 121.445 45.5626 120.713 46.1634 119.856 46.5182 C 119 46.873 118.057 46.9658 117.148 46.7849 C 116.239 46.6041 115.403 46.1576 114.748 45.5021 C 114.092 44.8465 113.646 44.0113 113.465 43.102 C 113.284 42.1927 113.377 41.2502 113.732 40.3937 C 114.087 39.5371 114.687 38.805 115.458 38.29 C 116.229 37.7749 117.135 37.5 118.062 37.5 C 119.306 37.5 120.498 37.9939 121.377 38.8729 C 122.256 39.752 122.75 40.9443 122.75 42.1875 Z M 139.937 21.875 C 139.01 21.875 138.104 21.6001 137.333 21.085 C 136.562 20.5699 135.962 19.8379 135.607 18.9813 C 135.252 18.1248 135.159 17.1823 135.34 16.273 C 135.521 15.3637 135.967 14.5285 136.623 13.8729 C 137.278 13.2174 138.114 12.7709 139.023 12.5901 C 139.932 12.4092 140.875 12.502 141.731 12.8568 C 142.588 13.2116 143.32 13.8124 143.835 14.5833 C 144.35 15.3541 144.625 16.2604 144.625 17.1875 C 144.625 18.4307 144.131 19.623 143.252 20.5021 C 142.373 21.3811 141.181 21.875 139.937 21.875 Z" stroke-linecap="round" />
</g>
<g transform="matrix(1 0 0 1 427.98 423.8)" clip-path="url(#CLIPPATH_4)"  >
<clipPath id="CLIPPATH_4" >
	<rect transform="matrix(1 0 0 1 77.81 27)" id="clip0" x="-103" y="-52" rx="0" ry="0" width="206" height="104" />
</clipPath>
<path style="stroke: none; stroke-width: 0; stroke-dasharray: none; stroke-linecap: butt; stroke-dashoffset: 0; stroke-linejoin: miter; stroke-miterlimit: 4; fill: rgb(68,68,68); fill-rule: nonzero; opacity: 1;" vector-effect="non-scaling-stroke"  transform=" translate(-25.19, -25)" d="M 25.1875 0 C 26.7663 0 28.2881 0.203451 29.7529 0.610352 C 31.2178 1.01725 32.585 1.59505 33.8545 2.34375 C 35.1403 3.09245 36.304 3.98763 37.3457 5.0293 C 38.3874 6.07096 39.2826 7.2347 40.0312 8.52051 C 40.7799 9.79004 41.3577 11.1572 41.7646 12.6221 C 42.1716 14.0869 42.375 15.6087 42.375 17.1875 C 42.375 19.5475 41.9274 21.7367 41.0322 23.7549 C 40.137 25.7731 38.8594 27.6042 37.1992 29.248 C 35.8483 30.5827 34.8066 32.0719 34.0742 33.7158 C 33.3581 35.3597 33 37.1419 33 39.0625 L 33 45.3125 C 33 45.9635 32.8779 46.5739 32.6338 47.1436 C 32.3896 47.7132 32.056 48.2096 31.6328 48.6328 C 31.2096 49.056 30.7132 49.3896 30.1436 49.6338 C 29.5739 49.8779 28.9635 50 28.3125 50 L 22.0625 50 C 21.4115 50 20.8011 49.8779 20.2314 49.6338 C 19.6618 49.3896 19.1654 49.056 18.7422 48.6328 C 18.319 48.2096 17.9854 47.7132 17.7412 47.1436 C 17.4971 46.5739 17.375 45.9635 17.375 45.3125 L 17.375 39.0625 C 17.375 37.1419 17.0088 35.3597 16.2764 33.7158 C 15.5602 32.0719 14.5267 30.5827 13.1758 29.248 C 11.5156 27.6042 10.238 25.7731 9.34277 23.7549 C 8.44759 21.7367 8 19.5475 8 17.1875 C 8 15.6087 8.20345 14.0869 8.61035 12.6221 C 9.01725 11.1572 9.59505 9.79004 10.3438 8.52051 C 11.0924 7.2347 11.9876 6.07096 13.0293 5.0293 C 14.071 3.98763 15.2266 3.09245 16.4961 2.34375 C 17.7819 1.59505 19.1572 1.01725 20.6221 0.610352 C 22.0869 0.203451 23.6087 0 25.1875 0 Z M 28.3125 46.875 C 28.7357 46.875 29.1019 46.7204 29.4111 46.4111 C 29.7204 46.1019 29.875 45.7357 29.875 45.3125 L 29.875 40.625 L 20.5 40.625 L 20.5 45.3125 C 20.5 45.7357 20.6546 46.1019 20.9639 46.4111 C 21.2731 46.7204 21.6393 46.875 22.0625 46.875 L 28.3125 46.875 Z M 29.9482 37.5 C 30.1598 35.4004 30.6969 33.4961 31.5596 31.7871 C 32.4222 30.0781 33.5859 28.4831 35.0508 27.002 C 36.4017 25.6348 37.4352 24.1455 38.1514 22.5342 C 38.8838 20.9066 39.25 19.1243 39.25 17.1875 C 39.25 15.2507 38.8757 13.4277 38.127 11.7188 C 37.3945 10.0098 36.3936 8.52051 35.124 7.25098 C 33.8545 5.98145 32.3652 4.98047 30.6562 4.24805 C 28.9473 3.49935 27.1243 3.125 25.1875 3.125 C 23.2507 3.125 21.4277 3.49935 19.7188 4.24805 C 18.0098 4.98047 16.5205 5.98145 15.251 7.25098 C 13.9814 8.52051 12.9723 10.0098 12.2236 11.7188 C 11.4912 13.4277 11.125 15.2507 11.125 17.1875 C 11.125 19.1243 11.4831 20.9066 12.1992 22.5342 C 12.9316 24.1455 13.9733 25.6348 15.3242 27.002 C 16.7891 28.4831 17.9528 30.0781 18.8154 31.7871 C 19.6781 33.4961 20.2152 35.4004 20.4268 37.5 L 29.9482 37.5 Z" stroke-linecap="round" />
</g>
<g transform="matrix(1 0 0 1 653.91 495.78)" clip-path="url(#CLIPPATH_5)"  >
<clipPath id="CLIPPATH_5" >
	<rect transform="matrix(1 0 0 1 -78 27)" id="clip0" x="-103" y="-52" rx="0" ry="0" width="206" height="104" />
</clipPath>
<path style="stroke: none; stroke-width: 1; stroke-dasharray: none; stroke-linecap: butt; stroke-dashoffset: 0; stroke-linejoin: miter; stroke-miterlimit: 4; fill: rgb(68,68,68); fill-rule: evenodd; opacity: 1;" vector-effect="non-scaling-stroke"  transform=" translate(-181, -25)" d="M 184.125 3.125 L 187.25 0 L 202.875 0 L 206 3.125 L 206 18.75 L 202.875 21.875 L 187.25 21.875 L 184.125 18.75 L 184.125 3.125 Z M 187.25 3.125 L 187.25 18.75 L 202.875 18.75 L 202.875 3.125 L 187.25 3.125 Z M 156 31.25 L 156 12.5 L 159.125 9.37499 L 174.75 9.37499 L 177.875 12.5 L 177.875 28.125 L 176.312 29.6875 L 176.313 29.6876 L 177.875 28.125 L 193.5 28.125 L 196.625 31.25 L 196.625 46.875 L 193.5 50 L 177.875 50 L 174.75 50 L 174.75 49.9997 L 174.75 50 L 159.125 50 L 156 46.875 L 156 31.25 Z M 159.125 46.875 L 159.125 31.25 L 174.75 31.25 L 174.75 46.875 L 159.125 46.875 Z M 177.875 46.875 L 177.875 31.25 L 193.5 31.25 L 193.5 46.875 L 177.875 46.875 Z M 159.125 28.125 L 159.125 12.5 L 174.75 12.5 L 174.75 28.125 L 159.125 28.125 Z" stroke-linecap="round" />
</g>
<g transform="matrix(1 0 0 1 540 442.87)" clip-path="url(#CLIPPATH_6)"  >
<clipPath id="CLIPPATH_6" >
	<rect transform="matrix(1 0 0 1 26.25 27)" id="clip0" x="-103" y="-52" rx="0" ry="0" width="206" height="104" />
</clipPath>
<path style="stroke: none; stroke-width: 1; stroke-dasharray: none; stroke-linecap: butt; stroke-dashoffset: 0; stroke-linejoin: miter; stroke-miterlimit: 4; fill: rgb(68,68,68); fill-rule: nonzero; opacity: 1;" vector-effect="non-scaling-stroke"  transform=" translate(-76.75, -25)" d="M 74.7917 28.125 L 72.0417 30.875 C 71.6234 29.1911 70.6537 27.6957 69.2869 26.6269 C 67.9202 25.5581 66.235 24.9774 64.5 24.9774 C 62.765 24.9774 61.0798 25.5581 59.7131 26.6269 C 58.3463 27.6957 57.3766 29.1911 56.9583 30.875 L 54.2083 28.125 L 52 30.3333 L 55.5833 33.9167 L 55.125 34.375 L 55.125 37.5 L 52 37.5 L 52 40.625 L 55.125 40.625 L 55.125 40.7917 C 55.2844 41.8097 55.5714 42.8037 55.9792 43.75 L 52 47.7917 L 54.2083 50 L 57.6458 46.5625 C 58.4637 47.606 59.5025 48.4553 60.6875 49.0497 C 61.8726 49.644 63.1746 49.9686 64.5 50 C 65.8254 49.9686 67.1274 49.644 68.3125 49.0497 C 69.4976 48.4553 70.5363 47.606 71.3542 46.5625 L 74.7917 50 L 77 47.7917 L 73.0208 43.75 C 73.4337 42.7838 73.7208 41.7685 73.875 40.7292 L 73.875 40.5208 L 77 40.5208 L 77 37.5 L 73.875 37.5 L 73.875 34.375 L 73.4167 33.9167 L 77 30.3333 L 74.7917 28.125 Z M 64.5 28.125 C 65.7432 28.125 66.9355 28.6189 67.8146 29.4979 C 68.6936 30.377 69.1875 31.5693 69.1875 32.8125 L 59.8125 32.8125 C 59.8125 31.5693 60.3064 30.377 61.1854 29.4979 C 62.0645 28.6189 63.2568 28.125 64.5 28.125 L 64.5 28.125 Z M 70.75 40.625 C 70.5974 42.2309 69.8899 43.7335 68.7492 44.8742 C 67.6085 46.0149 66.1059 46.7224 64.5 46.875 C 62.8941 46.7224 61.3915 46.0149 60.2508 44.8742 C 59.1101 43.7335 58.4026 42.2309 58.25 40.625 L 58.25 35.9375 L 70.75 35.9375 L 70.75 40.625 Z M 101.5 20 L 101.5 22.625 L 80.125 36.1875 L 80.125 32.5 L 97.8333 21.3125 L 70.75 4.16667 L 70.75 23.875 C 69.798 23.2063 68.7422 22.6995 67.625 22.375 L 67.625 1.3125 L 70 0 L 101.5 20 Z" stroke-linecap="round" />
</g>
<g transform="matrix(1 0 0 1 458.19 566.41)" clip-path="url(#CLIPPATH_7)"  >
<clipPath id="CLIPPATH_7" >
	<rect transform="matrix(1 0 0 1 77.81 -26)" id="clip0" x="-103" y="-52" rx="0" ry="0" width="206" height="104" />
</clipPath>
<path style="stroke: none; stroke-width: 1; stroke-dasharray: none; stroke-linecap: butt; stroke-dashoffset: 0; stroke-linejoin: miter; stroke-miterlimit: 4; fill: rgb(46,49,146); fill-rule: nonzero; opacity: 1;" vector-effect="non-scaling-stroke"  transform=" translate(-25.19, -78)" d="M 25.1875 53 C 26.7663 53 28.2881 53.2035 29.7529 53.6104 C 31.2178 54.0173 32.585 54.5951 33.8545 55.3438 C 35.1403 56.0924 36.304 56.9876 37.3457 58.0293 C 38.3874 59.071 39.2826 60.2347 40.0312 61.5205 C 40.7799 62.79 41.3577 64.1572 41.7646 65.6221 C 42.1716 67.0869 42.375 68.6087 42.375 70.1875 C 42.375 72.5475 41.9274 74.7367 41.0322 76.7549 C 40.137 78.7731 38.8594 80.6042 37.1992 82.248 C 35.8483 83.5827 34.8066 85.0719 34.0742 86.7158 C 33.3581 88.3597 33 90.1419 33 92.0625 L 33 98.3125 C 33 98.9635 32.8779 99.5739 32.6338 100.144 C 32.3896 100.713 32.056 101.21 31.6328 101.633 C 31.2096 102.056 30.7132 102.39 30.1436 102.634 C 29.5739 102.878 28.9635 103 28.3125 103 L 22.0625 103 C 21.4115 103 20.8011 102.878 20.2314 102.634 C 19.6618 102.39 19.1654 102.056 18.7422 101.633 C 18.319 101.21 17.9854 100.713 17.7412 100.144 C 17.4971 99.5739 17.375 98.9635 17.375 98.3125 L 17.375 92.0625 C 17.375 90.1419 17.0088 88.3597 16.2764 86.7158 C 15.5602 85.0719 14.5267 83.5827 13.1758 82.248 C 11.5156 80.6042 10.238 78.7731 9.34277 76.7549 C 8.44759 74.7367 8 72.5475 8 70.1875 C 8 68.6087 8.20345 67.0869 8.61035 65.6221 C 9.01725 64.1572 9.59505 62.79 10.3438 61.5205 C 11.0924 60.2347 11.9876 59.071 13.0293 58.0293 C 14.071 56.9876 15.2266 56.0924 16.4961 55.3438 C 17.7819 54.5951 19.1572 54.0173 20.6221 53.6104 C 22.0869 53.2035 23.6087 53 25.1875 53 Z M 28.3125 99.875 C 28.7357 99.875 29.1019 99.7204 29.4111 99.4111 C 29.7204 99.1019 29.875 98.7357 29.875 98.3125 L 29.875 93.625 L 20.5 93.625 L 20.5 98.3125 C 20.5 98.7357 20.6546 99.1019 20.9639 99.4111 C 21.2731 99.7204 21.6393 99.875 22.0625 99.875 L 28.3125 99.875 Z M 29.9482 90.5 C 30.1598 88.4004 30.6969 86.4961 31.5596 84.7871 C 32.4222 83.0781 33.5859 81.4831 35.0508 80.002 C 36.4017 78.6348 37.4352 77.1455 38.1514 75.5342 C 38.8838 73.9066 39.25 72.1243 39.25 70.1875 C 39.25 68.2507 38.8757 66.4277 38.127 64.7188 C 37.3945 63.0098 36.3936 61.5205 35.124 60.251 C 33.8545 58.9814 32.3652 57.9805 30.6562 57.248 C 28.9473 56.4993 27.1243 56.125 25.1875 56.125 C 23.2507 56.125 21.4277 56.4993 19.7188 57.248 C 18.0098 57.9805 16.5205 58.9814 15.251 60.251 C 13.9814 61.5205 12.9723 63.0098 12.2236 64.7188 C 11.4912 66.4277 11.125 68.2507 11.125 70.1875 C 11.125 72.1243 11.4831 73.9066 12.1992 75.5342 C 12.9316 77.1455 13.9733 78.6348 15.3242 80.002 C 16.7891 81.4831 17.9528 83.0781 18.8154 84.7871 C 19.6781 86.4961 20.2152 88.4004 20.4268 90.5 L 29.9482 90.5 Z" stroke-linecap="round" />
</g>
<g transform="matrix(1 0 0 1 561.92 566.5)" clip-path="url(#CLIPPATH_8)"  >
<clipPath id="CLIPPATH_8" >
	<rect transform="matrix(1 0 0 1 -25.92 -26.09)" id="clip0" x="-103" y="-52" rx="0" ry="0" width="206" height="104" />
</clipPath>
<path style="stroke: none; stroke-width: 1; stroke-dasharray: none; stroke-linecap: butt; stroke-dashoffset: 0; stroke-linejoin: miter; stroke-miterlimit: 4; fill: rgb(244,37,52); fill-rule: nonzero; opacity: 1;" vector-effect="non-scaling-stroke"  transform=" translate(-128.92, -78.09)" d="M 147.75 70.1875 C 147.757 68.7371 147.361 67.3132 146.604 66.0755 C 145.848 64.8377 144.763 63.8349 143.469 63.1793 C 142.175 62.5237 140.724 62.2413 139.279 62.3636 C 137.833 62.4859 136.451 63.0082 135.285 63.8719 C 134.12 64.7356 133.218 65.9066 132.681 67.2539 C 132.144 68.6011 131.992 70.0714 132.243 71.5 C 132.494 72.9286 133.138 74.2591 134.102 75.3425 C 135.066 76.426 136.313 77.2195 137.703 77.6344 C 137.19 78.6774 136.396 79.5566 135.411 80.1732 C 134.425 80.7899 133.287 81.1195 132.125 81.125 L 125.875 81.125 C 123.561 81.1332 121.333 82.002 119.625 83.5625 L 119.625 68.4656 C 121.522 68.0784 123.208 67.0007 124.355 65.4413 C 125.502 63.8819 126.03 61.952 125.835 60.0258 C 125.641 58.0995 124.738 56.3141 123.302 55.0157 C 121.866 53.7174 119.999 52.9985 118.062 52.9985 C 116.126 52.9985 114.259 53.7174 112.823 55.0157 C 111.387 56.3141 110.484 58.0995 110.29 60.0258 C 110.095 61.952 110.623 63.8819 111.77 65.4413 C 112.917 67.0007 114.603 68.0784 116.5 68.4656 L 116.5 87.5281 C 114.607 87.8903 112.911 88.9327 111.733 90.4589 C 110.556 91.985 109.977 93.8893 110.107 95.8126 C 110.237 97.736 111.066 99.5453 112.438 100.899 C 113.81 102.254 115.63 103.059 117.555 103.163 C 119.48 103.268 121.376 102.665 122.887 101.467 C 124.397 100.27 125.418 98.5606 125.755 96.6626 C 126.092 94.7647 125.723 92.8089 124.718 91.1642 C 123.712 89.5195 122.14 88.2995 120.297 87.7344 C 120.811 86.6926 121.605 85.8146 122.591 85.1991 C 123.576 84.5837 124.713 84.255 125.875 84.25 L 132.125 84.25 C 134.075 84.241 135.973 83.6242 137.556 82.4855 C 139.139 81.3467 140.328 79.7428 140.956 77.8969 C 142.829 77.6506 144.55 76.7338 145.799 75.3163 C 147.048 73.8989 147.741 72.0768 147.75 70.1875 Z M 113.375 60.8125 C 113.375 59.8854 113.65 58.9791 114.165 58.2083 C 114.68 57.4374 115.412 56.8366 116.269 56.4818 C 117.125 56.1271 118.068 56.0342 118.977 56.2151 C 119.886 56.396 120.721 56.8424 121.377 57.498 C 122.033 58.1535 122.479 58.9888 122.66 59.898 C 122.841 60.8073 122.748 61.7498 122.393 62.6064 C 122.038 63.4629 121.438 64.195 120.667 64.71 C 119.896 65.2251 118.99 65.5 118.062 65.5 C 116.819 65.5 115.627 65.0062 114.748 64.1271 C 113.869 63.248 113.375 62.0557 113.375 60.8125 Z M 122.75 95.1875 C 122.75 96.1146 122.475 97.0209 121.96 97.7918 C 121.445 98.5626 120.713 99.1634 119.856 99.5182 C 119 99.873 118.057 99.9658 117.148 99.785 C 116.239 99.6041 115.403 99.1576 114.748 98.5021 C 114.092 97.8465 113.646 97.0113 113.465 96.102 C 113.284 95.1927 113.377 94.2502 113.732 93.3937 C 114.087 92.5372 114.687 91.8051 115.458 91.29 C 116.229 90.7749 117.135 90.5 118.062 90.5 C 119.306 90.5 120.498 90.9939 121.377 91.873 C 122.256 92.752 122.75 93.9443 122.75 95.1875 Z M 139.937 74.875 C 139.01 74.875 138.104 74.6001 137.333 74.085 C 136.562 73.57 135.962 72.8379 135.607 71.9813 C 135.252 71.1248 135.159 70.1823 135.34 69.273 C 135.521 68.3638 135.967 67.5285 136.623 66.873 C 137.278 66.2174 138.114 65.771 139.023 65.5901 C 139.932 65.4092 140.875 65.5021 141.731 65.8568 C 142.588 66.2116 143.32 66.8124 143.835 67.5833 C 144.35 68.3541 144.625 69.2604 144.625 70.1875 C 144.625 71.4307 144.131 72.623 143.252 73.5021 C 142.373 74.3812 141.181 74.875 139.937 74.875 Z" stroke-linecap="round" />
</g>
<g transform="matrix(1 0 0 1 614 566.41)" clip-path="url(#CLIPPATH_9)"  >
<clipPath id="CLIPPATH_9" >
	<rect transform="matrix(1 0 0 1 -78 -26)" id="clip0" x="-103" y="-52" rx="0" ry="0" width="206" height="104" />
</clipPath>
<path style="stroke: none; stroke-width: 1; stroke-dasharray: none; stroke-linecap: butt; stroke-dashoffset: 0; stroke-linejoin: miter; stroke-miterlimit: 4; fill: rgb(0,0,0); fill-rule: evenodd; opacity: 1;" vector-effect="non-scaling-stroke"  transform=" translate(-181, -78)" d="M 184.125 56.125 L 187.25 53 L 202.875 53 L 206 56.125 L 206 71.75 L 202.875 74.875 L 187.25 74.875 L 184.125 71.75 L 184.125 56.125 Z M 187.25 56.125 L 187.25 71.75 L 202.875 71.75 L 202.875 56.125 L 187.25 56.125 Z M 156 84.25 L 156 65.5 L 159.125 62.375 L 174.75 62.375 L 177.875 65.5 L 177.875 81.125 L 176.312 82.6875 L 176.313 82.6876 L 177.875 81.125 L 193.5 81.125 L 196.625 84.25 L 196.625 99.875 L 193.5 103 L 177.875 103 L 174.75 103 L 174.75 103 L 174.75 103 L 159.125 103 L 156 99.875 L 156 84.25 Z M 159.125 99.875 L 159.125 84.25 L 174.75 84.25 L 174.75 99.875 L 159.125 99.875 Z M 177.875 99.875 L 177.875 84.25 L 193.5 84.25 L 193.5 99.875 L 177.875 99.875 Z M 159.125 81.125 L 159.125 65.5 L 174.75 65.5 L 174.75 81.125 L 159.125 81.125 Z" stroke-linecap="round" />
</g>
<g transform="matrix(1 0 0 1 509.75 566.41)" clip-path="url(#CLIPPATH_10)"  >
<clipPath id="CLIPPATH_10" >
	<rect transform="matrix(1 0 0 1 26.25 -26)" id="clip0" x="-103" y="-52" rx="0" ry="0" width="206" height="104" />
</clipPath>
<path style="stroke: none; stroke-width: 1; stroke-dasharray: none; stroke-linecap: butt; stroke-dashoffset: 0; stroke-linejoin: miter; stroke-miterlimit: 4; fill: rgb(55,179,74); fill-rule: nonzero; opacity: 1;" vector-effect="non-scaling-stroke"  transform=" translate(-76.75, -78)" d="M 74.7917 81.125 L 72.0417 83.875 C 71.6234 82.1911 70.6537 80.6957 69.2869 79.6269 C 67.9202 78.5581 66.235 77.9774 64.5 77.9774 C 62.765 77.9774 61.0798 78.5581 59.7131 79.6269 C 58.3463 80.6957 57.3766 82.1911 56.9583 83.875 L 54.2083 81.125 L 52 83.3333 L 55.5833 86.9167 L 55.125 87.375 L 55.125 90.5 L 52 90.5 L 52 93.625 L 55.125 93.625 L 55.125 93.7917 C 55.2844 94.8097 55.5714 95.8037 55.9792 96.75 L 52 100.792 L 54.2083 103 L 57.6458 99.5625 C 58.4637 100.606 59.5025 101.455 60.6875 102.05 C 61.8726 102.644 63.1746 102.969 64.5 103 C 65.8254 102.969 67.1274 102.644 68.3125 102.05 C 69.4976 101.455 70.5363 100.606 71.3542 99.5625 L 74.7917 103 L 77 100.792 L 73.0208 96.75 C 73.4337 95.7838 73.7208 94.7685 73.875 93.7292 L 73.875 93.5208 L 77 93.5208 L 77 90.5 L 73.875 90.5 L 73.875 87.375 L 73.4167 86.9167 L 77 83.3333 L 74.7917 81.125 Z M 64.5 81.125 C 65.7432 81.125 66.9355 81.6189 67.8146 82.4979 C 68.6936 83.377 69.1875 84.5693 69.1875 85.8125 L 59.8125 85.8125 C 59.8125 84.5693 60.3064 83.377 61.1854 82.4979 C 62.0645 81.6189 63.2568 81.125 64.5 81.125 L 64.5 81.125 Z M 70.75 93.625 C 70.5974 95.2309 69.8899 96.7335 68.7492 97.8742 C 67.6085 99.0149 66.1059 99.7224 64.5 99.875 C 62.8941 99.7224 61.3915 99.0149 60.2508 97.8742 C 59.1101 96.7335 58.4026 95.2309 58.25 93.625 L 58.25 88.9375 L 70.75 88.9375 L 70.75 93.625 Z M 101.5 73 L 101.5 75.625 L 80.125 89.1875 L 80.125 85.5 L 97.8333 74.3125 L 70.75 57.1667 L 70.75 76.875 C 69.798 76.2063 68.7422 75.6995 67.625 75.375 L 67.625 54.3125 L 70 53 L 101.5 73 Z" stroke-linecap="round" />
</g>
</svg>